<?xml version="1.0" encoding="utf-8"?>
<!-- Generator: Adobe Illustrator 13.0.0, SVG Export Plug-In . SVG Version: 6.00 Build 14948)  -->
<!DOCTYPE svg PUBLIC "-//W3C//DTD SVG 1.1//EN" "http://www.w3.org/Graphics/SVG/1.1/DTD/svg11.dtd">
<svg version="1.1" id="Layer_1" xmlns="http://www.w3.org/2000/svg" xmlns:xlink="http://www.w3.org/1999/xlink" x="0px" y="0px"
	 width="512px" height="512px" viewBox="0 0 512 512" enable-background="new 0 0 512 512" xml:space="preserve">
<g id="svgGrid">
	<line fill="none" x1="32" y1="0" x2="32" y2="512"/>
	<line fill="none" x1="64" y1="0" x2="64" y2="512"/>
	<line fill="none" x1="96" y1="0" x2="96" y2="512"/>
	<line fill="none" x1="128" y1="0" x2="128" y2="512"/>
	<line fill="none" x1="160" y1="0" x2="160" y2="512"/>
	<line fill="none" x1="192" y1="0" x2="192" y2="512"/>
	<line fill="none" x1="224" y1="0" x2="224" y2="512"/>
	<line fill="none" x1="256" y1="0" x2="256" y2="512"/>
	<line fill="none" x1="288" y1="0" x2="288" y2="512"/>
	<line fill="none" x1="320" y1="0" x2="320" y2="512"/>
	<line fill="none" x1="352" y1="0" x2="352" y2="512"/>
	<line fill="none" x1="384" y1="0" x2="384" y2="512"/>
	<line fill="none" x1="416" y1="0" x2="416" y2="512"/>
	<line fill="none" x1="448" y1="0" x2="448" y2="512"/>
	<line fill="none" x1="480" y1="0" x2="480" y2="512"/>
	<line fill="none" x1="0" y1="32" x2="512" y2="32"/>
	<line fill="none" x1="0" y1="64" x2="512" y2="64"/>
	<line fill="none" x1="0" y1="96" x2="512" y2="96"/>
	<line fill="none" x1="0" y1="128" x2="512" y2="128"/>
	<line fill="none" x1="0" y1="160" x2="512" y2="160"/>
	<line fill="none" x1="0" y1="192" x2="512" y2="192"/>
	<line fill="none" x1="0" y1="224" x2="512" y2="224"/>
	<line fill="none" x1="0" y1="256" x2="512" y2="256"/>
	<line fill="none" x1="0" y1="288" x2="512" y2="288"/>
	<line fill="none" x1="0" y1="320" x2="512" y2="320"/>
	<line fill="none" x1="0" y1="352" x2="512" y2="352"/>
	<line fill="none" x1="0" y1="384" x2="512" y2="384"/>
	<line fill="none" x1="0" y1="416" x2="512" y2="416"/>
	<line fill="none" x1="0" y1="448" x2="512" y2="448"/>
	<line fill="none" x1="0" y1="480" x2="512" y2="480"/>
	<rect fill="none" width="512" height="512"/>
</g>
<path fill="#FFFFFF" d="M256,480c141.385,0,256-42.98,256-96H0C0,437.02,114.615,480,256,480z M464,192H48c-26.4,0-48,21.6-48,48
	c0,26.4,21.6,48,48,48h416c26.4,0,48-21.6,48-48C512,213.6,490.4,192,464,192z M256,32C114.615,32,0,84.98,0,138v22h512v-22
	C512,84.98,397.385,32,256,32z M80,128c-8.836,0-16-7.164-16-16s7.164-16,16-16s16,7.164,16,16S88.836,128,80,128z M144,96
	c-8.836,0-16-7.164-16-16s7.164-16,16-16s16,7.164,16,16S152.836,96,144,96z M208,128c-8.836,0-16-7.164-16-16s7.164-16,16-16
	s16,7.164,16,16S216.836,128,208,128z M304,128c-8.837,0-16-7.164-16-16s7.163-16,16-16s16,7.164,16,16S312.837,128,304,128z
	 M368,96c-8.836,0-16-7.164-16-16s7.164-16,16-16s16,7.164,16,16S376.836,96,368,96z M432,128c-8.836,0-16-7.164-16-16
	s7.164-16,16-16s16,7.164,16,16S440.836,128,432,128z M0,320h512v32H0V320z"/>
</svg>
